<svg width="16" height="16" fill="none" xmlns="http://www.w3.org/2000/svg"><path d="M2.532 6.64H2.43l-.02.1-.851 4.267-.03.15H2.61l.02-.101.206-1.03h.611c.252 0 .496-.03.733-.087.253-.063.485-.208.696-.427.172-.172.307-.367.405-.583.1-.212.165-.43.194-.653.075-.48.005-.882-.234-1.184-.241-.306-.623-.448-1.114-.452H2.532Zm.49 2.47.308-1.536H3.348c.046 0 .094-.002.143-.006.308-.004.556.026.75.084.06.018.105.058.13.144.028.093.031.234-.003.435-.086.49-.246.711-.427.771-.237.074-.54.111-.913.107h-.004ZM11.532 6.64h-.102l-.02.1-.851 4.267-.03.15h1.082l.02-.101.206-1.03h.611c.252 0 .496-.03.732-.087.254-.063.486-.208.697-.427.172-.172.307-.367.405-.583.1-.212.165-.43.194-.653.075-.48.005-.882-.234-1.184-.241-.306-.623-.448-1.114-.452H11.532Zm.49 2.47.308-1.536h.017c.046 0 .094-.002.143-.006.308-.004.556.026.75.084.06.018.105.058.13.144.028.093.031.234-.003.435-.087.49-.246.711-.427.771-.237.074-.54.111-.913.107h-.004Z" fill="#7786CF" stroke="#7786CF" stroke-width=".25"/><path d="M7.312 5.504h-.103l-.02.1-.86 4.288-.03.15h1.08l.02-.101.469-2.353.56.005c.099 0 .173.01.225.026.053.016.077.036.088.05.029.038.051.13.013.324l-.382 1.899-.03.15h1.09l.02-.101.4-1.988.001-.002c.085-.455.037-.823-.224-1.029-.23-.183-.565-.269-.983-.277h-.59l.202-.99.031-.15h-.977Z" fill="#7786CF"/><path d="M8.754 7.993c.038-.193.016-.286-.013-.324-.011-.014-.035-.034-.088-.05a.794.794 0 0 0-.225-.026l-.56-.005-.47 2.353-.02.1H6.3l.03-.15.86-4.286.02-.1h1.079l-.03.15-.203.99h.59c.418.008.753.094.983.277.26.206.31.574.224 1.03l-.4 1.989-.02.1H8.34l.03-.15.383-1.898Zm0 0Z" stroke="#7786CF" stroke-width=".25"/></svg>